<svg width="103" height="105" viewBox="0 0 103 105" fill="none" xmlns="http://www.w3.org/2000/svg">
<g filter="url(#filter0_d_7_62)">
<path d="M4.96875 50C4.96875 70.4687 18.0937 87.8125 36.2188 94.2187V5.78125C18.0937 12.1875 4.96875 29.5312 4.96875 50Z" fill="#428BC1"/>
<path d="M98.7188 50C98.7188 29.5312 85.75 12.1875 67.4688 5.78125V94.2187C85.75 87.8125 98.7188 70.4687 98.7188 50" fill="#ED4C5C"/>
<path d="M36.2188 94.2187C41.0625 95.9375 46.375 96.875 51.8438 96.875C57.3125 96.875 62.625 95.9375 67.4688 94.2187V5.78125C62.625 4.0625 57.4687 3.125 51.8438 3.125C46.2188 3.125 41.0625 4.0625 36.2188 5.78125V94.2187" fill="white"/>
</g>
<defs>
<filter id="filter0_d_7_62" x="-2" y="0" width="108" height="108" filterUnits="userSpaceOnUse" color-interpolation-filters="sRGB">
<feFlood flood-opacity="0" result="BackgroundImageFix"/>
<feColorMatrix in="SourceAlpha" type="matrix" values="0 0 0 0 0 0 0 0 0 0 0 0 0 0 0 0 0 0 127 0" result="hardAlpha"/>
<feOffset dy="4"/>
<feGaussianBlur stdDeviation="2"/>
<feComposite in2="hardAlpha" operator="out"/>
<feColorMatrix type="matrix" values="0 0 0 0 0 0 0 0 0 0 0 0 0 0 0 0 0 0 0.25 0"/>
<feBlend mode="normal" in2="BackgroundImageFix" result="effect1_dropShadow_7_62"/>
<feBlend mode="normal" in="SourceGraphic" in2="effect1_dropShadow_7_62" result="shape"/>
</filter>
</defs>
</svg>
