<svg width="102" height="105" viewBox="0 0 102 105" fill="none" xmlns="http://www.w3.org/2000/svg">
<g filter="url(#filter0_d_7_70)">
<path d="M35.375 94.2187V72.6562L19.2812 84.5312C23.8125 88.75 29.2812 92.0312 35.375 94.2187V94.2187ZM66.625 94.2187C72.7187 92.0312 78.1875 88.75 82.7187 84.5312L66.625 72.5V94.2187V94.2187ZM6.78125 65.625C7.25 67.1875 7.875 68.5938 8.65625 70.1563L14.75 65.625H6.78125ZM87.25 65.625L93.3437 70.1563C93.9687 68.75 94.5937 67.1875 95.2187 65.625H87.25Z" fill="#2A5F9E"/>
<path d="M37.7187 59.375H5.0625C5.53125 61.5625 6.15625 63.5938 6.78125 65.625H14.75L8.65625 70.1563C9.90625 72.8125 11.3125 75.1562 13.0312 77.5L29.125 65.625H35.375V68.75L17.0938 82.1875L19.2813 84.375L35.375 72.6563V94.2188C37.4062 95 39.4375 95.4688 41.625 95.9375V59.375H37.7187ZM96.9375 59.375H60.375V95.9375C62.5625 95.4688 64.5938 94.8438 66.625 94.2188V72.6563L82.7188 84.375C84.9063 82.3438 86.7812 80.1563 88.6562 77.8125L71.9375 65.625H82.5625L92.0938 72.6563C92.5625 71.875 93.0312 70.9375 93.3438 70.1563L87.25 65.625H95.2188C95.8438 63.5938 96.4688 61.5625 96.9375 59.375" fill="white"/>
<path d="M13.0312 77.5C14.2813 79.2187 15.5313 80.7813 16.9375 82.3438L35.375 68.9062V65.7812H29.125L13.0312 77.5ZM72.0937 65.625L88.8125 77.8125C89.4375 77.0312 89.9062 76.25 90.5312 75.4687C90.6875 75.3125 90.6875 75.1562 90.8437 75.1562C91.3125 74.375 91.9375 73.4375 92.4062 72.6563L82.5625 65.625H72.0937Z" fill="#ED4C5C"/>
<path d="M66.625 5.78125V27.3438L82.7187 15.4687C78.1875 11.25 72.7187 7.96875 66.625 5.78125ZM35.375 5.78125C29.2812 7.96875 23.8125 11.25 19.2812 15.4687L35.375 27.5V5.78125ZM95.2187 34.375C94.75 32.8125 94.125 31.4063 93.3437 29.8438L87.25 34.375H95.2187V34.375ZM14.75 34.375L8.65625 29.8438C8.03125 31.4063 7.40625 32.8125 6.78125 34.375H14.75Z" fill="#2A5F9E"/>
<path d="M64.2813 40.625H96.7813C96.3125 38.4375 95.6875 36.4062 95.0625 34.375H87.0938L93.1875 29.8438C91.9375 27.1875 90.5313 24.8437 88.8125 22.5L72.875 34.375H66.625V31.25L84.9063 17.8125L82.7188 15.625L66.625 27.3437V5.78125C64.5938 5 62.5625 4.53125 60.375 4.0625V40.625H64.2813ZM5.0625 40.625H41.625V4.0625C39.4375 4.53125 37.4062 5.15625 35.375 5.78125V27.3437L19.2813 15.625C17.0938 17.6563 15.2188 19.8438 13.3438 22.1875L30.0625 34.375H19.4375L9.90625 27.3437C9.4375 28.125 8.96875 29.0625 8.65625 29.8438L14.75 34.375H6.78125C6.15625 36.4062 5.53125 38.4375 5.0625 40.625Z" fill="white"/>
<path d="M88.9688 22.5C87.7188 20.7812 86.4688 19.2188 85.0625 17.6562L66.625 31.0937V34.2187H72.875L88.9688 22.5V22.5ZM29.9062 34.375L13.3438 22.1875C12.7188 22.9687 12.25 23.75 11.625 24.5312C11.4688 24.6875 11.4688 24.8437 11.3125 24.8437C10.8437 25.625 10.2188 26.5625 9.75 27.3437L19.2812 34.375H29.9062Z" fill="#ED4C5C"/>
<path d="M96.9375 40.625H60.375V4.0625C57.4063 3.4375 54.2812 3.125 51 3.125C47.7188 3.125 44.5937 3.4375 41.625 4.0625V40.625H5.0625C4.4375 43.5937 4.125 46.7188 4.125 50C4.125 53.2812 4.4375 56.4063 5.0625 59.375H41.625V95.9375C44.5937 96.5625 47.7188 96.875 51 96.875C54.2812 96.875 57.4063 96.5625 60.375 95.9375V59.375H96.9375C97.5625 56.4063 97.875 53.2812 97.875 50C97.875 46.7188 97.5625 43.5937 96.9375 40.625Z" fill="#ED4C5C"/>
</g>
<defs>
<filter id="filter0_d_7_70" x="-3" y="0" width="108" height="108" filterUnits="userSpaceOnUse" color-interpolation-filters="sRGB">
<feFlood flood-opacity="0" result="BackgroundImageFix"/>
<feColorMatrix in="SourceAlpha" type="matrix" values="0 0 0 0 0 0 0 0 0 0 0 0 0 0 0 0 0 0 127 0" result="hardAlpha"/>
<feOffset dy="4"/>
<feGaussianBlur stdDeviation="2"/>
<feComposite in2="hardAlpha" operator="out"/>
<feColorMatrix type="matrix" values="0 0 0 0 0 0 0 0 0 0 0 0 0 0 0 0 0 0 0.25 0"/>
<feBlend mode="normal" in2="BackgroundImageFix" result="effect1_dropShadow_7_70"/>
<feBlend mode="normal" in="SourceGraphic" in2="effect1_dropShadow_7_70" result="shape"/>
</filter>
</defs>
</svg>
