<svg width="102" height="105" viewBox="0 0 102 105" fill="none" xmlns="http://www.w3.org/2000/svg">
<g filter="url(#filter0_d_7_66)">
<path d="M51 3.125C30.5312 3.125 13.1875 16.0938 6.78125 34.375H95.2187C88.8125 16.0938 71.4687 3.125 51 3.125Z" fill="#ED4C5C"/>
<path d="M51 96.875C71.4687 96.875 88.8125 83.9062 95.2187 65.625H6.78125C13.1875 83.9062 30.5312 96.875 51 96.875Z" fill="#428BC1"/>
<path d="M6.78125 34.375C5.0625 39.2187 4.125 44.5312 4.125 50C4.125 55.4688 5.0625 60.7813 6.78125 65.625H95.2187C96.9375 60.7813 97.875 55.4688 97.875 50C97.875 44.5312 96.9375 39.2187 95.2187 34.375H6.78125Z" fill="white"/>
</g>
<defs>
<filter id="filter0_d_7_66" x="-3" y="0" width="108" height="108" filterUnits="userSpaceOnUse" color-interpolation-filters="sRGB">
<feFlood flood-opacity="0" result="BackgroundImageFix"/>
<feColorMatrix in="SourceAlpha" type="matrix" values="0 0 0 0 0 0 0 0 0 0 0 0 0 0 0 0 0 0 127 0" result="hardAlpha"/>
<feOffset dy="4"/>
<feGaussianBlur stdDeviation="2"/>
<feComposite in2="hardAlpha" operator="out"/>
<feColorMatrix type="matrix" values="0 0 0 0 0 0 0 0 0 0 0 0 0 0 0 0 0 0 0.25 0"/>
<feBlend mode="normal" in2="BackgroundImageFix" result="effect1_dropShadow_7_66"/>
<feBlend mode="normal" in="SourceGraphic" in2="effect1_dropShadow_7_66" result="shape"/>
</filter>
</defs>
</svg>
