<svg xmlns="http://www.w3.org/2000/svg" width="900" height="600"><defs><clipPath id="a" clipPathUnits="userSpaceOnUse"><path fill="#2b4896" d="M0 452.362h900v600H0z"/></clipPath></defs><g transform="translate(0 -452.362)"><path fill="#2b4896" d="M0 452.362h900v600H0z"/><g clip-path="url(#a)"><g transform="matrix(1.875 0 0 1.25 -37.527 -234.233)"><path fill="#fff" d="M498.795 514.953L219.472 801.155h50.25v15.906L534.42 547.11z"/><path fill="#e32d3c" d="M511.398 519.545L239.23 795.591l18.117-.8v.875l263.479-266.421z"/></g><path fill="#fff" d="M435.86 792.255L-87.767 431.074l94.155 2.315 1.1-19.87 497.346 340.21z"/><path fill="#e32d3c" d="M455.739 788l-510.92-348.165 37.943.933.06-1.093L478.13 775.417z"/><g transform="matrix(-1.87373 -.04608 -.06912 1.24915 1496.188 87.426)"><path fill="#fff" d="M498.795 514.953L219.472 801.155h50.25v15.906L534.42 547.11z" transform="scale(1 -1) rotate(-2.113 -35933.707 -7397.48)"/><path fill="#e32d3c" d="M511.398 519.545L239.23 795.591l18.117-.8v.875l263.479-266.421z" transform="scale(1 -1) rotate(-2.113 -35933.707 -7397.48)"/><path fill="#fff" d="M530.842 518.318L242.139 799.64h50.25v15.906l274.078-265.072z"/><path fill="#e32d3c" d="M541.311 522.11L259.764 793.276h20.25v.875l272.86-261.54z"/></g><path fill="#fff" d="M380 452.362h140v600H380z"/><path fill="#fff" d="M687.362-900h130V0h-130z" transform="rotate(90)"/><path fill="#e32d3c" d="M407.5 452.362h85v600h-85z"/><path fill="#e32d3c" d="M712.362-900h80V0h-80z" transform="rotate(90)"/></g></g></svg>